<?xml version="1.0" standalone="no"?>
<!DOCTYPE svg PUBLIC "-//W3C//DTD SVG 20010904//EN"
 "http://www.w3.org/TR/2001/REC-SVG-20010904/DTD/svg10.dtd">
<svg version="1.0" xmlns="http://www.w3.org/2000/svg"
 width="545.000000pt" height="275.000000pt" viewBox="0 0 545.000000 275.000000"
 preserveAspectRatio="xMidYMid meet">
<metadata>
Created by potrace 1.10, written by Peter Selinger 2001-2011
</metadata>
<g transform="translate(0.000000,275.000000) scale(0.100000,-0.100000)"
fill="#fffafa" stroke="none">
<path d="M4478 2733 c0 -10 -2 -511 -2 -1115 -1 -603 -4 -1099 -7 -1102 -3 -4
-1010 -6 -2237 -7 -1936 0 -2232 -2 -2232 -15 0 -12 298 -14 2250 -14 l2250 0
0 1135 c0 750 -3 1135 -10 1135 -5 0 -11 -8 -12 -17z"/>
<path d="M2173 2200 c-50 -3 -94 -8 -98 -12 -4 -3 -4 -16 0 -27 4 -14 16 -21
43 -23 l37 -3 2 -322 2 -323 -30 0 c-37 0 -63 -23 -54 -49 4 -14 17 -20 53
-23 56 -5 352 1 370 7 22 8 13 45 -13 55 -14 5 -29 9 -33 9 -30 -5 -31 3 -31
321 -1 357 -4 342 68 324 53 -13 66 -47 65 -170 0 -103 -15 -164 -40 -164 -8
0 -14 -4 -14 -10 0 -5 -11 -10 -24 -10 -31 0 -40 -14 -26 -40 12 -23 58 -26
142 -9 107 22 160 56 210 138 20 32 26 98 16 175 -7 47 -100 120 -183 143 -32
9 -362 18 -462 13z m441 -35 c124 -26 186 -91 186 -194 0 -65 -13 -98 -58
-144 -44 -45 -119 -75 -212 -83 -59 -6 -70 -5 -70 9 0 10 6 13 20 10 11 -3 32
2 46 12 41 27 54 72 54 191 0 163 -22 194 -136 194 l-54 0 0 -350 0 -350 55 0
c30 0 55 -4 55 -10 0 -6 -75 -10 -205 -10 -130 0 -205 4 -205 10 0 6 20 10 45
10 l45 0 0 350 0 350 -45 0 c-25 0 -45 5 -45 10 0 17 442 12 524 -5z"/>
<path d="M671 2186 c-6 -7 -38 -85 -70 -172 -33 -87 -79 -208 -103 -269 -25
-60 -55 -140 -68 -177 -21 -60 -27 -69 -61 -82 -45 -18 -55 -32 -39 -51 9 -11
36 -15 109 -15 103 0 125 7 119 36 -2 14 -14 20 -43 24 -37 5 -40 7 -39 35 1
17 12 54 24 83 l22 52 103 0 c114 0 101 8 144 -94 27 -62 26 -74 -1 -78 -17
-2 -23 -10 -23 -28 l0 -25 165 -3 c91 -1 175 0 188 3 38 9 23 54 -20 59 -16 2
-29 26 -73 136 -26 63 -63 153 -82 200 -76 186 -83 205 -78 218 2 7 1 11 -4 8
-5 -3 -21 24 -36 62 -15 37 -31 73 -37 80 -14 16 -83 15 -97 -2z m189 -264
c58 -141 123 -302 145 -357 39 -95 43 -100 73 -103 18 -2 32 -7 32 -13 0 -5
-75 -9 -180 -9 -113 0 -180 4 -180 10 0 6 18 10 41 10 29 0 40 4 36 13 -3 6
-23 54 -44 104 l-38 93 -117 0 -118 0 -15 -37 c-59 -142 -58 -166 14 -171 22
-2 41 -7 41 -13 0 -5 -46 -9 -105 -9 -63 0 -105 4 -105 10 0 6 11 10 23 10 13
0 31 8 41 18 14 16 106 245 249 620 31 81 32 82 67 82 l35 0 105 -258z"/>
<path d="M575 1842 c-26 -70 -50 -133 -53 -139 -3 -10 22 -13 107 -13 l112 0
-16 30 c-9 17 -35 80 -59 140 l-43 110 -48 -128z m64 31 c14 -31 61 -153 61
-159 0 -2 -34 -4 -75 -4 -41 0 -75 3 -75 7 0 14 43 128 51 138 5 5 9 17 9 27
0 27 15 22 29 -9z"/>
<path d="M1200 2185 c-18 -21 3 -43 43 -47 l32 -3 0 -285 c0 -344 -2 -363 -33
-365 -36 -3 -56 -28 -42 -51 11 -18 25 -19 208 -16 187 2 212 6 212 32 0 17
-21 30 -51 34 l-34 3 0 144 c0 140 1 144 22 147 29 4 53 -33 53 -83 0 -58 27
-154 55 -197 39 -58 95 -83 186 -82 58 1 82 5 102 20 46 34 67 102 41 129 -20
19 -32 11 -50 -31 -25 -59 -37 -42 -50 71 -10 88 -50 159 -108 192 -15 8 -9
15 36 44 93 60 116 160 59 252 -57 89 -133 107 -452 107 -180 0 -219 -3 -229
-15z m490 -15 c79 -13 147 -45 174 -83 29 -40 29 -144 1 -183 -31 -41 -109
-77 -184 -84 l-66 -6 50 -8 c131 -22 204 -93 205 -201 1 -76 23 -135 50 -135
16 0 33 22 39 51 4 19 11 32 16 29 18 -10 4 -55 -26 -82 -26 -25 -37 -28 -100
-28 -139 0 -199 68 -215 245 -9 95 -22 115 -79 115 l-45 0 0 -170 0 -170 45 0
c25 0 45 -4 45 -10 0 -6 -72 -10 -195 -10 -123 0 -195 4 -195 10 0 6 20 10 45
10 l45 0 0 350 0 350 -45 0 c-25 0 -45 5 -45 10 0 13 395 13 480 0z"/>
<path d="M1510 1990 l0 -170 46 0 c25 0 54 5 66 11 30 16 48 71 48 147 0 92
-8 127 -36 157 -19 20 -32 25 -74 25 l-50 0 0 -170z m105 127 c24 -20 27 -30
29 -102 4 -129 -17 -175 -79 -175 l-33 0 -1 150 -2 150 30 0 c17 0 42 -10 56
-23z"/>
<path d="M2924 2185 c-11 -28 4 -45 41 -45 l35 0 0 -328 0 -328 -32 -2 c-44
-4 -60 -19 -47 -43 9 -18 22 -19 212 -17 l202 3 0 25 c0 22 -5 25 -37 28 l-38
3 0 330 0 329 24 0 c37 0 56 10 56 30 0 10 -7 21 -16 24 -9 3 -101 6 -205 6
-159 0 -191 -2 -195 -15z m406 -15 c0 -5 -20 -10 -45 -10 l-45 0 0 -350 0
-350 45 0 c25 0 45 -4 45 -10 0 -6 -73 -10 -200 -10 -127 0 -200 4 -200 10 0
6 21 10 48 10 l47 0 0 350 0 350 -47 0 c-27 0 -48 5 -48 10 0 6 73 10 200 10
127 0 200 -4 200 -10z"/>
<path d="M3454 2193 c-6 -5 -14 -55 -17 -115 -5 -89 -3 -109 10 -119 13 -11
18 -10 29 6 8 10 14 31 14 46 0 76 50 129 120 129 42 0 48 -3 52 -24 4 -21 4
-558 0 -613 -2 -18 -9 -22 -39 -25 -30 -2 -39 -8 -41 -25 -2 -14 3 -23 15 -27
40 -11 372 -9 392 3 8 5 11 16 6 30 -5 16 -14 21 -40 21 -28 0 -34 4 -39 28
-3 15 -5 163 -5 330 l2 303 65 -3 c56 -3 67 -6 84 -29 11 -14 23 -51 27 -83 4
-31 13 -62 18 -67 13 -13 -11 120 -26 150 -20 37 -52 51 -118 51 l-63 0 0
-350 0 -350 45 0 c25 0 45 -4 45 -10 0 -6 -73 -10 -200 -10 -127 0 -200 4
-200 10 0 6 22 10 48 10 l48 0 1 350 1 350 -60 0 c-102 0 -142 -37 -154 -145
-11 -90 -28 -66 -21 28 4 45 7 94 7 110 l0 27 334 0 335 0 0 -107 c1 -121 10
-155 12 -42 1 103 -1 142 -11 154 -10 12 -659 19 -676 8z"/>
<path d="M2077 1313 c-4 -3 -58 -7 -120 -8 -139 -2 -153 -6 -160 -48 -8 -46
21 -83 62 -80 17 1 32 -1 32 -5 1 -4 3 -57 4 -118 1 -61 5 -116 9 -123 9 -15
99 -14 114 1 8 8 12 50 12 125 l0 113 28 6 c62 13 72 21 72 62 0 27 -7 45 -23
60 -13 12 -27 19 -30 15z m33 -68 l0 -35 -50 0 -50 0 0 -135 0 -135 -45 0 -45
0 0 136 0 136 -50 -4 -50 -3 0 38 0 37 145 0 145 0 0 -35z"/>
<path d="M1133 1290 c-27 -12 -52 -34 -70 -61 -25 -38 -28 -52 -28 -123 0 -74
2 -84 30 -120 31 -41 98 -76 145 -76 42 0 112 28 142 57 56 54 70 166 31 251
-35 74 -161 110 -250 72z m163 -19 c59 -27 88 -78 88 -155 0 -37 -7 -73 -17
-93 -46 -88 -164 -116 -250 -59 -88 59 -91 226 -6 289 52 38 125 45 185 18z"/>
<path d="M1161 1184 c-24 -30 -28 -97 -10 -138 23 -50 104 -53 130 -5 17 32
14 115 -5 144 -24 36 -86 35 -115 -1z m100 -16 c9 -14 5 -110 -5 -127 -4 -6
-23 -11 -41 -11 -30 0 -35 4 -43 33 -11 41 -7 94 8 112 14 17 70 12 81 -7z"/>
<path d="M1518 1302 c-59 -5 -61 -15 -59 -237 1 -66 5 -126 10 -133 5 -8 27
-15 50 -17 45 -3 71 13 71 45 0 10 6 21 13 23 10 4 10 6 0 6 -7 1 -13 8 -13
18 0 9 12 -1 30 -26 61 -84 141 -92 156 -15 6 31 3 40 -13 54 -42 33 -46 56
-19 103 17 30 23 51 19 75 -7 45 -66 102 -107 103 -76 4 -103 4 -138 1z m167
-36 c63 -27 74 -93 24 -151 -17 -19 -27 -35 -22 -35 5 0 17 -16 26 -35 9 -19
24 -35 33 -35 12 0 14 -6 9 -32 -9 -39 -19 -47 -49 -40 -32 8 -57 33 -77 80
-13 30 -24 42 -39 42 -18 0 -20 -6 -20 -60 l0 -60 -45 0 -45 0 0 170 0 170 85
0 c51 0 99 -6 120 -14z"/>
<path d="M1570 1170 c0 -37 2 -40 28 -40 34 0 52 16 52 46 0 23 -17 34 -56 34
-21 0 -24 -4 -24 -40z"/>
<path d="M2220 1302 c-48 -7 -50 -14 -50 -191 0 -91 5 -173 10 -181 11 -18 83
-18 105 0 9 7 15 29 15 50 0 58 8 70 47 70 54 0 73 15 73 58 0 21 -5 43 -12
50 -9 9 -5 17 14 36 26 27 28 75 4 95 -12 10 -160 19 -206 13z m195 -59 l-3
-36 -66 2 -66 2 0 -30 0 -31 58 0 57 0 -1 -37 -1 -38 -57 0 -56 0 0 -67 0 -68
-45 0 -45 0 0 170 0 170 113 0 114 0 -2 -37z"/>
<path d="M2587 1295 c-80 -28 -117 -86 -117 -185 0 -90 36 -153 105 -181 164
-68 316 78 264 252 -32 104 -142 154 -252 114z m153 -27 c60 -31 84 -74 84
-152 -1 -95 -41 -154 -122 -176 -148 -39 -260 109 -193 257 38 83 143 115 231
71z"/>
<path d="M2601 1184 c-26 -33 -28 -109 -5 -142 33 -48 99 -48 125 -1 17 32 14
115 -5 144 -24 36 -86 35 -115 -1z m91 -11 c11 -10 18 -30 18 -54 0 -44 -20
-101 -27 -80 -4 11 -7 11 -13 0 -7 -10 -14 -10 -34 -1 -24 11 -26 16 -23 74 1
44 6 62 15 61 6 -2 12 2 12 7 0 16 32 12 52 -7z"/>
<path d="M713 1289 c-18 -18 -18 -340 -1 -357 7 -7 31 -12 54 -12 46 0 59 17
56 72 -2 24 2 27 40 33 92 16 128 56 128 145 0 43 -5 55 -33 87 -33 36 -34 36
-133 40 -73 4 -102 2 -111 -8z m176 -15 c17 -4 42 -18 56 -32 20 -20 25 -35
25 -76 0 -31 -6 -61 -16 -75 -21 -29 -72 -51 -120 -51 l-37 0 5 -50 5 -50 -43
0 -44 0 0 170 0 170 69 0 c38 0 82 -3 100 -6z"/>
<path d="M800 1159 l0 -51 33 7 c45 10 47 12 47 45 0 31 -22 50 -59 50 -19 0
-21 -6 -21 -51z m58 4 c-5 -26 -38 -29 -38 -4 0 15 6 21 21 21 14 0 19 -5 17
-17z"/>
<path d="M2912 1288 c-17 -17 -17 -328 1 -352 11 -15 29 -17 121 -17 59 1 112
3 117 7 5 3 9 25 9 50 0 39 -3 46 -26 54 -14 6 -40 10 -59 10 -19 0 -37 5 -41
12 -5 7 -3 8 6 3 9 -6 11 -4 5 4 -4 7 -9 61 -12 119 -3 66 -9 110 -16 114 -19
12 -92 9 -105 -4z m98 -141 l0 -133 68 4 67 4 0 -41 0 -41 -112 0 -113 0 0
170 0 170 45 0 45 0 0 -133z"/>
<path d="M3220 1285 c-17 -20 -15 -332 1 -352 13 -15 95 -18 104 -3 8 13 8
347 0 360 -10 16 -91 12 -105 -5z m98 -175 l-2 -170 -43 0 -43 0 0 170 0 170
45 0 45 0 -2 -170z"/>
<path d="M3495 1286 c-70 -31 -113 -120 -100 -205 16 -105 80 -162 183 -163
58 0 100 18 138 59 35 36 44 68 44 153 0 63 -22 106 -73 144 -35 26 -147 33
-192 12z m146 -7 c76 -26 118 -103 105 -195 -13 -95 -71 -147 -164 -148 -110
0 -167 59 -167 174 1 99 37 151 118 170 47 12 70 11 108 -1z"/>
<path d="M3523 1183 c-26 -40 -24 -127 4 -155 29 -28 78 -28 106 1 30 29 32
128 3 160 -29 32 -90 29 -113 -6z m109 -22 c14 -37 4 -109 -18 -126 -20 -14
-48 -12 -70 6 -11 9 -14 29 -12 73 3 52 6 62 26 72 33 16 62 6 74 -25z"/>
</g>
</svg>
